<?xml version="1.0" encoding="utf-8"?>
<!-- Generator: Adobe Illustrator 23.0.1, SVG Export Plug-In . SVG Version: 6.00 Build 0)  -->
<svg version="1.1" id="图层_1" xmlns="http://www.w3.org/2000/svg" xmlns:xlink="http://www.w3.org/1999/xlink" x="0px" y="0px"
	 viewBox="0 0 103 32" style="enable-background:new 0 0 103 32;" xml:space="preserve">
<style type="text/css">
	.st0{fill:#FFFFFF;}
</style>
<g>
	<path class="st0" d="M29,15.4v-1h-5.2c-1.4,0-2.3-0.4-2.9-1.1c-0.6-0.7-0.8-2-0.8-3.8c0-2.1,0.3-3.6,0.9-4.5
		c0.6-0.9,1.5-1.4,2.8-1.4h3.5c0.9,0,1.6-0.8,1.7-1.8v-1h-5.2c-2.4,0-4.2,0.7-5.4,2.1c-1.1,1.4-1.7,3.5-1.7,6.4
		c0,1.5,0.2,2.8,0.6,3.8c0.4,1.1,1,1.9,1.7,2.6c0.6,0.5,1.2,0.9,1.9,1.1c0.7,0.2,1.6,0.3,2.8,0.3h3.7C28.2,17.2,29,16.4,29,15.4z"/>
	<path class="st0" d="M54.9,2.9c-1.1,1.4-1.7,3.5-1.7,6.4c0,1.5,0.2,2.8,0.6,3.8c0.4,1.1,1,1.9,1.7,2.6c0.6,0.5,1.2,0.9,1.9,1.1
		c0.7,0.2,1.6,0.3,2.8,0.3h3.7c0.9,0,1.7-0.8,1.7-1.8v-1h-5.2c-1.4,0-2.3-0.4-2.9-1.1c-0.6-0.7-0.8-2-0.8-3.8c0-2.1,0.3-3.6,0.9-4.5
		c0.6-0.9,1.5-1.4,2.8-1.4h3.5c0.9,0,1.6-0.8,1.7-1.8v-1h-5.2C57.9,0.9,56.1,1.5,54.9,2.9z"/>
	<path class="st0" d="M44.2,15.4V9.1c0-0.8-0.6-1.5-1.4-1.6l-6.1,0v2.9h4.2v3.8h-3.6c-1.2,0-2.2-0.4-2.7-1.2
		c-0.6-0.8-0.8-2.1-0.8-3.9c0-1.9,0.3-3.3,0.9-4.2c0.6-0.9,1.5-1.3,2.7-1.3h5.2c0.9,0,1.6-0.8,1.6-1.8v-1h-6.8
		c-2.4,0-4.2,0.7-5.3,2.1c-1.2,1.4-1.7,3.5-1.7,6.4c0,1.5,0.2,2.8,0.6,3.8c0.4,1.1,1,1.9,1.7,2.6c0.6,0.5,1.2,0.9,1.9,1.1
		c0.7,0.2,1.6,0.3,2.9,0.3h5.1C43.4,17.2,44.2,16.4,44.2,15.4z"/>
	<path class="st0" d="M9,17.2c0.5,0,0.9-0.3,1.1-0.8l6-15.6h-2.4c-0.6,0-1,0.3-1.3,0.8L8.1,13L3.9,1.7C3.7,1.2,3.2,0.9,2.6,0.9H0
		l6.5,16.4H9z"/>
	<path class="st0" d="M98.6,0.9c-0.8,0-1.5,0.5-1.7,1.2L93.2,13L89.6,2.1c-0.2-0.7-0.9-1.2-1.7-1.2H84v16.3l1.3,0
		c1,0,1.8-0.8,1.8-1.8l0-11l4.3,12.8h2.3c0.8,0,1.5-0.5,1.7-1.3l3.7-11.4l0,12.7h1.3c1,0,1.8-0.8,1.8-1.8V0.9H98.6z"/>
	<path class="st0" d="M80.4,2.8c-1.3-1.3-3.3-2-5.9-2c-2.7,0-4.6,0.7-5.9,2c-1.3,1.3-1.9,3.3-1.9,6.1c0,2.9,0.6,5,1.9,6.4
		c1.3,1.4,3.3,2,6,2c2.7,0,4.7-0.7,5.9-2c1.3-1.3,1.9-3.4,1.9-6.2C82.3,6.2,81.6,4.2,80.4,2.8z M77.6,13.2c-0.7,0.9-1.8,1.3-3.2,1.3
		c-1.5,0-2.5-0.5-3.2-1.4c-0.7-0.9-1-2.3-1-4.3c0-1.8,0.4-3.1,1.1-4C71.9,4,73,3.5,74.4,3.5c1.4,0,2.5,0.4,3.2,1.3
		c0.7,0.9,1,2.3,1,4.2C78.7,10.9,78.3,12.3,77.6,13.2z"/>
	<path class="st0" d="M49.1,15.5c-0.6,0-1.1,0.5-1.1,1.1c0,0.6,0.5,1.1,1.1,1.1c0.6,0,1.1-0.5,1.1-1.1
		C50.2,15.9,49.7,15.5,49.1,15.5z"/>
	<path class="st0" d="M46.7,27.5l-0.4,0.2c0.4,0.4,0.8,0.8,1,1.2l0.5-0.3C47.5,28.3,47.1,27.9,46.7,27.5z"/>
	<path class="st0" d="M32.5,22.6h-0.7v1.8h-3.6v4.7h0.7v-0.6h3v3.3h0.7v-3.3h3v0.6h0.7v-4.6h-3.6V22.6z M31.8,27.8h-3v-2.7h3V27.8z
		 M35.5,25.1v2.7h-3v-2.7H35.5z"/>
	<polygon class="st0" points="45.6,27.3 47.6,27.3 47.6,26.7 45.6,26.7 45.6,25.2 47.9,25.2 47.9,24.6 42.7,24.6 42.7,25.2 
		44.9,25.2 44.9,26.7 43,26.7 43,27.3 44.9,27.3 44.9,29.1 42.6,29.1 42.6,29.7 48.1,29.7 48.1,29.1 45.6,29.1 	"/>
	<path class="st0" d="M16.3,22.9l-0.5,0.3c0.4,0.4,0.8,0.9,1,1.3H15v1.9h0.7V25h6.9v1.3h0.7v-1.9h-1.8c0.4-0.4,0.8-1,1.1-1.5
		l-0.7-0.2c-0.3,0.5-0.7,1.2-1.1,1.7h-3.9l0.5-0.2C17.1,23.8,16.7,23.3,16.3,22.9z"/>
	<path class="st0" d="M18.7,28.1c0,1-0.2,2.2-3.8,3.1c0.2,0.1,0.4,0.4,0.4,0.5c3.7-1,4.1-2.5,4.1-3.7v-1.1h-0.7V28.1z"/>
	<path class="st0" d="M18.8,22.7l-0.6,0.2c0.3,0.5,0.7,1.1,0.8,1.5l0.6-0.2C19.5,23.8,19.2,23.1,18.8,22.7z"/>
	<polygon class="st0" points="10,28.4 10,23.1 5.5,23.1 5.5,28.4 6.2,28.4 6.2,23.7 9.3,23.7 9.3,28.4 	"/>
	<path class="st0" d="M3.5,24.3l0.5-0.3c-0.2-0.4-0.6-0.9-1-1.2L2.6,23C3,23.4,3.4,23.9,3.5,24.3z"/>
	<polygon class="st0" points="22,29.6 22,26 16.2,26 16.2,29.6 16.9,29.6 16.9,26.6 21.3,26.6 21.3,29.6 	"/>
	<path class="st0" d="M22.4,31h-1.7c-0.5,0-0.5,0-0.5-0.3V29h-0.7v1.7c0,0.7,0.2,0.9,1.2,0.9h1.8c0.8,0,1-0.3,1-1.4
		c-0.2,0-0.5-0.1-0.6-0.2C22.9,30.8,22.8,31,22.4,31z"/>
	<path class="st0" d="M5,28.2c-0.2-0.2-0.9-1-1.3-1.5c0.5-0.7,0.9-1.4,1.2-2.2l-0.4-0.2l-0.1,0H1.7V25h2.5c-0.6,1.3-1.7,2.6-2.7,3.3
		c0.1,0.1,0.3,0.4,0.3,0.6c0.4-0.3,0.8-0.7,1.2-1.1v4h0.6v-4.4c0.4,0.5,0.8,1.1,1,1.4L5,28.2z"/>
	<path class="st0" d="M9.6,31.1H8.7c-0.3,0-0.4-0.1-0.4-0.3v-2.5H7.8C8,27.6,8,27.1,8,26.5v-2H7.4v2c0,1.5-0.3,3.4-2.8,4.7
		c0.1,0.1,0.3,0.4,0.4,0.5c1.6-0.8,2.3-1.9,2.7-3.1v2.1c0,0.6,0.3,0.8,0.9,0.8h1c0.8,0,0.9-0.4,1-2c-0.2,0-0.4-0.1-0.6-0.3
		C10,30.8,9.9,31.1,9.6,31.1z"/>
	<path class="st0" d="M95.9,29.4c0.3-1.1,0.5-2.6,0.7-3.8L96,25.5c-0.1,1.2-0.4,3-0.6,4.1c-0.8,0.2-1.6,0.4-2.2,0.5l0.2,0.7
		c1-0.3,2.4-0.6,3.8-1l-0.1-0.6L95.9,29.4z"/>
	<path class="st0" d="M80.5,31.7h0.7v-7.8H88v7c0,0.2-0.1,0.2-0.3,0.2c-0.2,0-0.8,0-1.5,0c0.1,0.2,0.2,0.5,0.2,0.7
		c0.9,0,1.4,0,1.7-0.1s0.4-0.3,0.4-0.8v-7.6h-8.2V31.7z"/>
	<path class="st0" d="M87.6,29.3c-0.2-0.5-0.6-1.2-1.1-1.9c0.3-0.8,0.5-1.7,0.7-2.7l-0.6-0.1c-0.1,0.8-0.3,1.5-0.5,2.2
		c-0.4-0.5-0.8-1.1-1.2-1.5l-0.4,0.3c0.5,0.6,0.9,1.2,1.4,1.9c-0.4,1.1-1,2-1.7,2.7c0.1,0.1,0.4,0.3,0.5,0.4
		c0.7-0.7,1.2-1.5,1.6-2.4c0.4,0.6,0.7,1.1,0.9,1.6L87.6,29.3z"/>
	<path class="st0" d="M94.3,25.6l-0.5,0.1c0.2,1.2,0.4,2.6,0.5,3.6l0.6-0.1C94.7,28.2,94.5,26.8,94.3,25.6z"/>
	<path class="st0" d="M99.7,22.6H99v4.8h-1.6v4.3H98v-0.5h3.1v0.4h0.7v-4.3h-2.1v-2h2.6v-0.6h-2.6V22.6z M101.2,28v2.6H98V28H101.2z
		"/>
	<path class="st0" d="M84.6,29c-0.2-0.4-0.6-1-1-1.6c0.3-0.8,0.5-1.7,0.7-2.7l-0.6-0.1c-0.1,0.8-0.3,1.5-0.5,2.2
		c-0.4-0.5-0.8-1.1-1.2-1.6l-0.4,0.4c0.5,0.6,1,1.2,1.4,1.9c-0.4,1.1-0.9,2-1.6,2.6c0.1,0.1,0.4,0.3,0.5,0.4
		c0.6-0.7,1.1-1.5,1.5-2.4c0.3,0.5,0.6,1,0.8,1.3L84.6,29z"/>
	<path class="st0" d="M95.1,22.7l-0.5,0.2c0.3,0.5,0.6,1.1,0.7,1.5l0.6-0.2C95.7,23.8,95.4,23.2,95.1,22.7z"/>
	<rect x="93.3" y="24.5" class="st0" width="3.8" height="0.6"/>
	<path class="st0" d="M62.8,24.3v-0.6h-4.1c0.1-0.3,0.2-0.7,0.3-1l-0.6-0.1c-0.3,1.1-0.8,2-1.4,2.7c0.1,0.1,0.4,0.3,0.5,0.4
		c0.4-0.4,0.7-0.9,1-1.4H62.8z"/>
	<path class="st0" d="M55.5,22.6l-0.6,0.2c0.3,0.4,0.6,1,0.7,1.4l0.6-0.2C56.1,23.6,55.8,23.1,55.5,22.6z"/>
	<path class="st0" d="M55.4,26.3c0-0.5,0-0.9,0-1.4h1.8v-0.6h-3.4v0.6h1c0,2.5-0.2,5-1.1,6.4c0.2,0.1,0.4,0.3,0.5,0.4
		c0.8-1.2,1-2.9,1.1-4.8h1.1c-0.1,2.8-0.2,3.7-0.3,4C56.1,31,56.1,31,55.9,31c-0.1,0-0.4,0-0.8,0c0.1,0.2,0.1,0.4,0.2,0.6
		c0.3,0,0.7,0,0.9,0c0.2,0,0.4-0.1,0.5-0.3c0.2-0.3,0.3-1.4,0.4-4.7c0-0.1,0-0.3,0-0.3h-0.3L55.4,26.3z"/>
	<path class="st0" d="M41.2,31.8h0.7v-0.5h6.8v0.5h0.7v-8.7h-8.2V31.8z M41.9,23.7h6.8v6.9h-6.8V23.7z"/>
	<path class="st0" d="M67.1,24H71v7.7h0.7v-5.3c1.2,0.6,2.5,1.4,3.2,2l0.5-0.6c-0.8-0.6-2.4-1.5-3.6-2.1l-0.1,0.1V24h4.3v-0.7h-8.8
		V24z"/>
	<path class="st0" d="M57.6,31.4c0.2,0.1,0.4,0.3,0.5,0.4c0.6-0.4,1.2-1.1,1.7-1.7l-0.6-0.2C58.7,30.5,58.2,31,57.6,31.4z"/>
	<path class="st0" d="M61.8,26h0.8v-0.6h-0.8v-0.7h-0.6v0.7h-2.1v-0.7h-0.6v0.7H58V26h0.6v3.2h-1.1v0.6h5.4v-0.6h-1V26z M61.2,29.2
		h-2.1v-0.8h2.1V29.2z M61.2,27.9h-2.1v-0.8h2.1V27.9z M61.2,26.7h-2.1V26h2.1V26.7z"/>
	<path class="st0" d="M61.1,29.9l-0.5,0.3c0.6,0.5,1.3,1.1,1.6,1.6l0.5-0.4C62.3,31,61.6,30.3,61.1,29.9z"/>
</g>
</svg>
